<svg xmlns="http://www.w3.org/2000/svg" width="430" height="430" fill="none" viewBox="0 0 430 430"><g stroke-linecap="round" stroke-linejoin="round" stroke-miterlimit="10" stroke-width="18"><path stroke="#08a88a" d="M180.8 118.5V68h-34.3v50.5"/><path stroke="#121331" d="M254.7 261.9c-4.2-11.7-10.6-22.4-18.7-31.5-5.1-5.8-10.9-10.9-17.2-15.3-14.7-10.3-23.7-27-23.7-45v-51.6h-63v51.6c0 18-8.9 34.7-23.6 45C83.4 232.6 67 261.6 67 294.5c0 26.1 10.3 49.7 27.1 67.1h139.1"/><path stroke="#121331" d="M195.2 146.5c4.7-1.6 9.7-2.4 14.8-2.4 26 0 47 21.1 47 47 0 16.4-8.4 30.8-21.1 39.2M362.2 336c0 5-.9 9.9-2.5 14.7-3.5 6.5-10.4 10.9-18.3 10.9h-228c-7.9 0-14.8-4.4-18.3-10.9-1.7-4.8-2.5-9.7-2.5-14.7 0-22.4 17.4-42.6 45-56.4 7-3.5 14.7-6.6 22.9-9.3 19.3-6.2 41.5-9.8 65.2-10h1.8c19.3 0 37.6 2.3 54.1 6.4 13.1 3.2 25.2 7.6 35.7 12.9 27.5 13.8 44.9 34 44.9 56.4"/><path stroke="#121331" d="M225.5 260.3c-5.2 6.9-8 15.5-7.7 24.4.8 21.4 19.5 31.9 20.4 32.4m-77.8-46.8c-1.7 4.6-2.5 9.5-2.3 14.4.8 21.4 19.5 31.9 20.4 32.4m103-50.4c-2.7 5.5-4.1 11.7-3.8 18.1.8 21.4 19.5 31.9 20.4 32.4"/></g></svg>